<?xml version="1.0" encoding="utf-8"?>
<!DOCTYPE svg PUBLIC "-//W3C//DTD SVG 1.1//EN" "http://www.w3.org/Graphics/SVG/1.1/DTD/svg11.dtd">
<svg version="1.1" id="Layer_1" xmlns="http://www.w3.org/2000/svg" xmlns:xlink="http://www.w3.org/1999/xlink" x="0px" y="0px"
	 width="738px" height="306px" viewBox="0 0 738 306" enable-background="new 0 0 738 306" xml:space="preserve">
<rect x="18" y="18" fill="#FFFFFF" stroke="#231F20" stroke-miterlimit="10" width="18" height="18"/>
<rect x="54" y="18" fill="#FFFFFF" stroke="#231F20" stroke-miterlimit="10" width="18" height="18"/>
<rect x="18" y="54" fill="#FFFFFF" stroke="#231F20" stroke-miterlimit="10" width="18" height="18"/>
<rect x="54" y="54" fill="#FFFFFF" stroke="#231F20" stroke-miterlimit="10" width="18" height="18"/>
<rect x="90" y="18" fill="#FFFFFF" stroke="#231F20" stroke-miterlimit="10" width="18" height="18"/>
<rect x="126" y="18" fill="#FFFFFF" stroke="#231F20" stroke-miterlimit="10" width="18" height="18"/>
<rect x="90" y="54" fill="#FFFFFF" stroke="#231F20" stroke-miterlimit="10" width="18" height="18"/>
<rect x="126" y="54" fill="#009246" stroke="#231F20" stroke-miterlimit="10" width="18" height="18"/>
<rect x="162" y="18" fill="#FFFFFF" stroke="#231F20" stroke-miterlimit="10" width="18" height="18"/>
<rect x="198" y="18" fill="#FFFFFF" stroke="#231F20" stroke-miterlimit="10" width="18" height="18"/>
<rect x="162" y="54" fill="#009246" stroke="#231F20" stroke-miterlimit="10" width="18" height="18"/>
<rect x="198" y="54" fill="#FFFFFF" stroke="#231F20" stroke-miterlimit="10" width="18" height="18"/>
<rect x="234" y="18" fill="#FFFFFF" stroke="#231F20" stroke-miterlimit="10" width="18" height="18"/>
<rect x="270" y="18" fill="#FFFFFF" stroke="#231F20" stroke-miterlimit="10" width="18" height="18"/>
<rect x="234" y="54" fill="#009246" stroke="#231F20" stroke-miterlimit="10" width="18" height="18"/>
<rect x="270" y="54" fill="#009246" stroke="#231F20" stroke-miterlimit="10" width="18" height="18"/>
<rect x="18" y="90" fill="#FFFFFF" stroke="#231F20" stroke-miterlimit="10" width="18" height="18"/>
<rect x="54" y="90" fill="#009246" stroke="#231F20" stroke-miterlimit="10" width="18" height="18"/>
<rect x="18" y="126" fill="#FFFFFF" stroke="#231F20" stroke-miterlimit="10" width="18" height="18"/>
<rect x="54" y="126" fill="#FFFFFF" stroke="#231F20" stroke-miterlimit="10" width="18" height="18"/>
<rect x="90" y="90" fill="#FFFFFF" stroke="#231F20" stroke-miterlimit="10" width="18" height="18"/>
<rect x="126" y="90" fill="#009246" stroke="#231F20" stroke-miterlimit="10" width="18" height="18"/>
<rect x="90" y="126" fill="#FFFFFF" stroke="#231F20" stroke-miterlimit="10" width="18" height="18"/>
<rect x="126" y="126" fill="#009246" stroke="#231F20" stroke-miterlimit="10" width="18" height="18"/>
<rect x="162" y="90" fill="#FFFFFF" stroke="#231F20" stroke-miterlimit="10" width="18" height="18"/>
<rect x="198" y="90" fill="#009246" stroke="#231F20" stroke-miterlimit="10" width="18" height="18"/>
<rect x="162" y="126" fill="#009246" stroke="#231F20" stroke-miterlimit="10" width="18" height="18"/>
<rect x="198" y="126" fill="#FFFFFF" stroke="#231F20" stroke-miterlimit="10" width="18" height="18"/>
<rect x="234" y="90" fill="#FFFFFF" stroke="#231F20" stroke-miterlimit="10" width="18" height="18"/>
<rect x="270" y="90" fill="#009246" stroke="#231F20" stroke-miterlimit="10" width="18" height="18"/>
<rect x="234" y="126" fill="#009246" stroke="#231F20" stroke-miterlimit="10" width="18" height="18"/>
<rect x="270" y="126" fill="#009246" stroke="#231F20" stroke-miterlimit="10" width="18" height="18"/>
<rect x="18" y="162" fill="#009246" stroke="#231F20" stroke-miterlimit="10" width="18" height="18"/>
<rect x="54" y="162" fill="#FFFFFF" stroke="#231F20" stroke-miterlimit="10" width="18" height="18"/>
<rect x="18" y="198" fill="#FFFFFF" stroke="#231F20" stroke-miterlimit="10" width="18" height="18"/>
<rect x="54" y="198" fill="#FFFFFF" stroke="#231F20" stroke-miterlimit="10" width="18" height="18"/>
<rect x="90" y="162" fill="#009246" stroke="#231F20" stroke-miterlimit="10" width="18" height="18"/>
<rect x="126" y="162" fill="#FFFFFF" stroke="#231F20" stroke-miterlimit="10" width="18" height="18"/>
<rect x="90" y="198" fill="#FFFFFF" stroke="#231F20" stroke-miterlimit="10" width="18" height="18"/>
<rect x="126" y="198" fill="#009246" stroke="#231F20" stroke-miterlimit="10" width="18" height="18"/>
<rect x="162" y="162" fill="#009246" stroke="#231F20" stroke-miterlimit="10" width="18" height="18"/>
<rect x="198" y="162" fill="#FFFFFF" stroke="#231F20" stroke-miterlimit="10" width="18" height="18"/>
<rect x="162" y="198" fill="#009246" stroke="#231F20" stroke-miterlimit="10" width="18" height="18"/>
<rect x="198" y="198" fill="#FFFFFF" stroke="#231F20" stroke-miterlimit="10" width="18" height="18"/>
<rect x="234" y="162" fill="#009246" stroke="#231F20" stroke-miterlimit="10" width="18" height="18"/>
<rect x="270" y="162" fill="#FFFFFF" stroke="#231F20" stroke-miterlimit="10" width="18" height="18"/>
<rect x="234" y="198" fill="#009246" stroke="#231F20" stroke-miterlimit="10" width="18" height="18"/>
<rect x="270" y="198" fill="#009246" stroke="#231F20" stroke-miterlimit="10" width="18" height="18"/>
<rect x="18" y="234" fill="#009246" stroke="#231F20" stroke-miterlimit="10" width="18" height="18"/>
<rect x="54" y="234" fill="#009246" stroke="#231F20" stroke-miterlimit="10" width="18" height="18"/>
<rect x="18" y="270" fill="#FFFFFF" stroke="#231F20" stroke-miterlimit="10" width="18" height="18"/>
<rect x="54" y="270" fill="#FFFFFF" stroke="#231F20" stroke-miterlimit="10" width="18" height="18"/>
<rect x="90" y="234" fill="#009246" stroke="#231F20" stroke-miterlimit="10" width="18" height="18"/>
<rect x="126" y="234" fill="#009246" stroke="#231F20" stroke-miterlimit="10" width="18" height="18"/>
<rect x="90" y="270" fill="#FFFFFF" stroke="#231F20" stroke-miterlimit="10" width="18" height="18"/>
<rect x="126" y="270" fill="#009246" stroke="#231F20" stroke-miterlimit="10" width="18" height="18"/>
<rect x="162" y="234" fill="#009246" stroke="#231F20" stroke-miterlimit="10" width="18" height="18"/>
<rect x="198" y="234" fill="#009246" stroke="#231F20" stroke-miterlimit="10" width="18" height="18"/>
<rect x="162" y="270" fill="#009246" stroke="#231F20" stroke-miterlimit="10" width="18" height="18"/>
<rect x="198" y="270" fill="#FFFFFF" stroke="#231F20" stroke-miterlimit="10" width="18" height="18"/>
<rect x="234" y="234" fill="#009246" stroke="#231F20" stroke-miterlimit="10" width="18" height="18"/>
<rect x="270" y="234" fill="#009246" stroke="#231F20" stroke-miterlimit="10" width="18" height="18"/>
<rect x="234" y="270" fill="#009246" stroke="#231F20" stroke-miterlimit="10" width="18" height="18"/>
<rect x="270" y="270" fill="#009246" stroke="#231F20" stroke-miterlimit="10" width="18" height="18"/>
<line fill="none" stroke="#0081CD" stroke-width="3" stroke-miterlimit="10" x1="9" y1="0" x2="9" y2="306"/>
<line fill="none" stroke="#0081CD" stroke-width="3" stroke-miterlimit="10" x1="81" y1="0" x2="81" y2="306"/>
<line fill="none" stroke="#0081CD" stroke-width="3" stroke-miterlimit="10" x1="153" y1="0" x2="153" y2="306"/>
<line fill="none" stroke="#0081CD" stroke-width="3" stroke-miterlimit="10" x1="225" y1="0" x2="225" y2="306"/>
<line fill="none" stroke="#0081CD" stroke-width="3" stroke-miterlimit="10" x1="297" y1="0" x2="297" y2="306"/>
<line fill="none" stroke="#0081CD" stroke-width="3" stroke-miterlimit="10" x1="0" y1="9" x2="306" y2="9"/>
<line fill="none" stroke="#0081CD" stroke-width="3" stroke-miterlimit="10" x1="0" y1="81" x2="306" y2="81"/>
<line fill="none" stroke="#0081CD" stroke-width="3" stroke-miterlimit="10" x1="0" y1="153" x2="306" y2="153"/>
<line fill="none" stroke="#0081CD" stroke-width="3" stroke-miterlimit="10" x1="0" y1="225" x2="306" y2="225"/>
<line fill="none" stroke="#0081CD" stroke-width="3" stroke-miterlimit="10" x1="0" y1="297" x2="306" y2="297"/>
<line fill="none" stroke="#BC1E47" stroke-width="1.5" stroke-miterlimit="10" stroke-dasharray="3" x1="45" y1="306" x2="45" y2="0"/>
<line fill="none" stroke="#BC1E47" stroke-width="1.5" stroke-miterlimit="10" stroke-dasharray="3" x1="117" y1="0" x2="117" y2="306"/>
<line fill="none" stroke="#BC1E47" stroke-width="1.5" stroke-miterlimit="10" stroke-dasharray="3" x1="189" y1="0" x2="189" y2="306"/>
<line fill="none" stroke="#BC1E47" stroke-width="1.5" stroke-miterlimit="10" stroke-dasharray="3" x1="261" y1="0" x2="261" y2="306"/>
<line fill="none" stroke="#BC1E47" stroke-width="1.5" stroke-miterlimit="10" stroke-dasharray="3" x1="0" y1="45" x2="306" y2="45"/>
<line fill="none" stroke="#BC1E47" stroke-width="1.5" stroke-miterlimit="10" stroke-dasharray="3" x1="0" y1="117" x2="306" y2="117"/>
<line fill="none" stroke="#BC1E47" stroke-width="1.5" stroke-miterlimit="10" stroke-dasharray="3" x1="0" y1="189" x2="306" y2="189"/>
<line fill="none" stroke="#BC1E47" stroke-width="1.5" stroke-miterlimit="10" stroke-dasharray="3" x1="0" y1="261" x2="306" y2="261"/>
<rect x="450" y="18" fill="#009246" stroke="#231F20" stroke-miterlimit="10" width="18" height="18"/>
<rect x="486" y="18" fill="#009246" stroke="#231F20" stroke-miterlimit="10" width="18" height="18"/>
<rect x="450" y="54" fill="#009246" stroke="#231F20" stroke-miterlimit="10" width="18" height="18"/>
<rect x="486" y="54" fill="#009246" stroke="#231F20" stroke-miterlimit="10" width="18" height="18"/>
<rect x="522" y="18" fill="#009246" stroke="#231F20" stroke-miterlimit="10" width="18" height="18"/>
<rect x="558" y="18" fill="#009246" stroke="#231F20" stroke-miterlimit="10" width="18" height="18"/>
<rect x="522" y="54" fill="#009246" stroke="#231F20" stroke-miterlimit="10" width="18" height="18"/>
<rect x="558" y="54" fill="#FFFFFF" stroke="#231F20" stroke-miterlimit="10" width="18" height="18"/>
<rect x="594" y="18" fill="#009246" stroke="#231F20" stroke-miterlimit="10" width="18" height="18"/>
<rect x="630" y="18" fill="#009246" stroke="#231F20" stroke-miterlimit="10" width="18" height="18"/>
<rect x="594" y="54" fill="#FFFFFF" stroke="#231F20" stroke-miterlimit="10" width="18" height="18"/>
<rect x="630" y="54" fill="#009246" stroke="#231F20" stroke-miterlimit="10" width="18" height="18"/>
<rect x="666" y="18" fill="#FFFFFF" stroke="#231F20" stroke-miterlimit="10" width="18" height="18"/>
<rect x="702" y="18" fill="#FFFFFF" stroke="#231F20" stroke-miterlimit="10" width="18" height="18"/>
<rect x="666" y="54" fill="#009246" stroke="#231F20" stroke-miterlimit="10" width="18" height="18"/>
<rect x="702" y="54" fill="#009246" stroke="#231F20" stroke-miterlimit="10" width="18" height="18"/>
<rect x="450" y="90" fill="#009246" stroke="#231F20" stroke-miterlimit="10" width="18" height="18"/>
<rect x="486" y="90" fill="#FFFFFF" stroke="#231F20" stroke-miterlimit="10" width="18" height="18"/>
<rect x="450" y="126" fill="#009246" stroke="#231F20" stroke-miterlimit="10" width="18" height="18"/>
<rect x="486" y="126" fill="#009246" stroke="#231F20" stroke-miterlimit="10" width="18" height="18"/>
<rect x="522" y="90" fill="#FFFFFF" stroke="#231F20" stroke-miterlimit="10" width="18" height="18"/>
<rect x="558" y="90" fill="#009246" stroke="#231F20" stroke-miterlimit="10" width="18" height="18"/>
<rect x="522" y="126" fill="#FFFFFF" stroke="#231F20" stroke-miterlimit="10" width="18" height="18"/>
<rect x="558" y="126" fill="#009246" stroke="#231F20" stroke-miterlimit="10" width="18" height="18"/>
<rect x="594" y="90" fill="#FFFFFF" stroke="#231F20" stroke-miterlimit="10" width="18" height="18"/>
<rect x="630" y="90" fill="#009246" stroke="#231F20" stroke-miterlimit="10" width="18" height="18"/>
<rect x="594" y="126" fill="#009246" stroke="#231F20" stroke-miterlimit="10" width="18" height="18"/>
<rect x="630" y="126" fill="#FFFFFF" stroke="#231F20" stroke-miterlimit="10" width="18" height="18"/>
<rect x="666" y="90" fill="#FFFFFF" stroke="#231F20" stroke-miterlimit="10" width="18" height="18"/>
<rect x="702" y="90" fill="#FFFFFF" stroke="#231F20" stroke-miterlimit="10" width="18" height="18"/>
<rect x="666" y="126" fill="#FFFFFF" stroke="#231F20" stroke-miterlimit="10" width="18" height="18"/>
<rect x="702" y="126" fill="#009246" stroke="#231F20" stroke-miterlimit="10" width="18" height="18"/>
<rect x="450" y="162" fill="#FFFFFF" stroke="#231F20" stroke-miterlimit="10" width="18" height="18"/>
<rect x="486" y="162" fill="#009246" stroke="#231F20" stroke-miterlimit="10" width="18" height="18"/>
<rect x="450" y="198" fill="#009246" stroke="#231F20" stroke-miterlimit="10" width="18" height="18"/>
<rect x="486" y="198" fill="#009246" stroke="#231F20" stroke-miterlimit="10" width="18" height="18"/>
<rect x="522" y="162" fill="#009246" stroke="#231F20" stroke-miterlimit="10" width="18" height="18"/>
<rect x="558" y="162" fill="#FFFFFF" stroke="#231F20" stroke-miterlimit="10" width="18" height="18"/>
<rect x="522" y="198" fill="#FFFFFF" stroke="#231F20" stroke-miterlimit="10" width="18" height="18"/>
<rect x="558" y="198" fill="#009246" stroke="#231F20" stroke-miterlimit="10" width="18" height="18"/>
<rect x="594" y="162" fill="#009246" stroke="#231F20" stroke-miterlimit="10" width="18" height="18"/>
<rect x="630" y="162" fill="#FFFFFF" stroke="#231F20" stroke-miterlimit="10" width="18" height="18"/>
<rect x="594" y="198" fill="#009246" stroke="#231F20" stroke-miterlimit="10" width="18" height="18"/>
<rect x="630" y="198" fill="#FFFFFF" stroke="#231F20" stroke-miterlimit="10" width="18" height="18"/>
<rect x="666" y="162" fill="#FFFFFF" stroke="#231F20" stroke-miterlimit="10" width="18" height="18"/>
<rect x="702" y="162" fill="#FFFFFF" stroke="#231F20" stroke-miterlimit="10" width="18" height="18"/>
<rect x="666" y="198" fill="#009246" stroke="#231F20" stroke-miterlimit="10" width="18" height="18"/>
<rect x="702" y="198" fill="#FFFFFF" stroke="#231F20" stroke-miterlimit="10" width="18" height="18"/>
<rect x="450" y="234" fill="#009246" stroke="#231F20" stroke-miterlimit="10" width="18" height="18"/>
<rect x="486" y="234" fill="#009246" stroke="#231F20" stroke-miterlimit="10" width="18" height="18"/>
<rect x="450" y="270" fill="#FFFFFF" stroke="#231F20" stroke-miterlimit="10" width="18" height="18"/>
<rect x="486" y="270" fill="#FFFFFF" stroke="#231F20" stroke-miterlimit="10" width="18" height="18"/>
<rect x="522" y="234" fill="#FFFFFF" stroke="#231F20" stroke-miterlimit="10" width="18" height="18"/>
<rect x="558" y="234" fill="#009246" stroke="#231F20" stroke-miterlimit="10" width="18" height="18"/>
<rect x="522" y="270" fill="#FFFFFF" stroke="#231F20" stroke-miterlimit="10" width="18" height="18"/>
<rect x="558" y="270" fill="#FFFFFF" stroke="#231F20" stroke-miterlimit="10" width="18" height="18"/>
<rect x="594" y="234" fill="#009246" stroke="#231F20" stroke-miterlimit="10" width="18" height="18"/>
<rect x="630" y="234" fill="#FFFFFF" stroke="#231F20" stroke-miterlimit="10" width="18" height="18"/>
<rect x="594" y="270" fill="#FFFFFF" stroke="#231F20" stroke-miterlimit="10" width="18" height="18"/>
<rect x="630" y="270" fill="#FFFFFF" stroke="#231F20" stroke-miterlimit="10" width="18" height="18"/>
<rect x="666" y="234" fill="#FFFFFF" stroke="#231F20" stroke-miterlimit="10" width="18" height="18"/>
<rect x="702" y="234" fill="#FFFFFF" stroke="#231F20" stroke-miterlimit="10" width="18" height="18"/>
<rect x="666" y="270" fill="#FFFFFF" stroke="#231F20" stroke-miterlimit="10" width="18" height="18"/>
<rect x="702" y="270" fill="#FFFFFF" stroke="#231F20" stroke-miterlimit="10" width="18" height="18"/>
<line fill="none" stroke="#0081CD" stroke-width="3" stroke-miterlimit="10" x1="441" y1="0" x2="441" y2="306"/>
<line fill="none" stroke="#0081CD" stroke-width="3" stroke-miterlimit="10" x1="513" y1="0" x2="513" y2="306"/>
<line fill="none" stroke="#0081CD" stroke-width="3" stroke-miterlimit="10" x1="585" y1="0" x2="585" y2="306"/>
<line fill="none" stroke="#0081CD" stroke-width="3" stroke-miterlimit="10" x1="657" y1="0" x2="657" y2="306"/>
<line fill="none" stroke="#0081CD" stroke-width="3" stroke-miterlimit="10" x1="729" y1="0" x2="729" y2="306"/>
<line fill="none" stroke="#0081CD" stroke-width="3" stroke-miterlimit="10" x1="432" y1="9" x2="738" y2="9"/>
<line fill="none" stroke="#0081CD" stroke-width="3" stroke-miterlimit="10" x1="432" y1="81" x2="738" y2="81"/>
<line fill="none" stroke="#0081CD" stroke-width="3" stroke-miterlimit="10" x1="432" y1="153" x2="738" y2="153"/>
<line fill="none" stroke="#0081CD" stroke-width="3" stroke-miterlimit="10" x1="432" y1="225" x2="738" y2="225"/>
<line fill="none" stroke="#0081CD" stroke-width="3" stroke-miterlimit="10" x1="432" y1="297" x2="738" y2="297"/>
<line fill="none" stroke="#BC1E47" stroke-width="1.5" stroke-miterlimit="10" stroke-dasharray="3" x1="477" y1="306" x2="477" y2="0"/>
<line fill="none" stroke="#BC1E47" stroke-width="1.5" stroke-miterlimit="10" stroke-dasharray="3" x1="549" y1="0" x2="549" y2="306"/>
<line fill="none" stroke="#BC1E47" stroke-width="1.5" stroke-miterlimit="10" stroke-dasharray="3" x1="621" y1="0" x2="621" y2="306"/>
<line fill="none" stroke="#BC1E47" stroke-width="1.5" stroke-miterlimit="10" stroke-dasharray="3" x1="693" y1="0" x2="693" y2="306"/>
<line fill="none" stroke="#BC1E47" stroke-width="1.5" stroke-miterlimit="10" stroke-dasharray="3" x1="432" y1="45" x2="738" y2="45"/>
<line fill="none" stroke="#BC1E47" stroke-width="1.5" stroke-miterlimit="10" stroke-dasharray="3" x1="432" y1="117" x2="738" y2="117"/>
<line fill="none" stroke="#BC1E47" stroke-width="1.5" stroke-miterlimit="10" stroke-dasharray="3" x1="432" y1="189" x2="738" y2="189"/>
<line fill="none" stroke="#BC1E47" stroke-width="1.5" stroke-miterlimit="10" stroke-dasharray="3" x1="432" y1="261" x2="738" y2="261"/>
<g>
	<g>
		<line fill="none" stroke="#FEC200" stroke-width="10" stroke-miterlimit="10" x1="324" y1="153" x2="383.824" y2="153"/>
		<g>
			<path fill="#FEC200" d="M414,153c-14.199,5.27-31.816,14.258-42.736,23.779L379.864,153l-8.601-23.774
				C382.184,138.747,399.8,147.736,414,153z"/>
		</g>
	</g>
</g>
</svg>
